<svg width="100" height="100" viewBox="0 0 24 24" fill="none" xmlns="http://www.w3.org/2000/svg">
  <path d="M20 12C20 16.4183 16.4183 20 12 20C9.22413 20 6.77265 18.5833 5.30874 16.4069" stroke="#94A3B8" stroke-width="1.5" stroke-linecap="round"/>
  <path d="M4 12C4 7.58172 7.58172 4 12 4C14.7759 4 17.2273 5.41667 18.6913 7.59312" stroke="#94A3B8" stroke-width="1.5" stroke-linecap="round"/>
  
  <path d="M19 8V4M19 4L22 7" stroke="#94A3B8" stroke-width="1.5" stroke-linecap="round" stroke-linejoin="round"/>
  <path d="M5 16V20M5 20L2 17" stroke="#94A3B8" stroke-width="1.5" stroke-linecap="round" stroke-linejoin="round"/>

  <path d="M12 7C12 7 9 9.5 9 12C9 14.5 12 17 12 17C12 17 15 14.5 15 12C15 9.5 12 7Z" fill="#22C55E" stroke="#166534" stroke-width="1"/>
  <path d="M12 17V12" stroke="#166534" stroke-width="1" stroke-linecap="round"/>
</svg>
